<svg id="visual" viewBox="0 0 512 512" width="512" height="512" xmlns="http://www.w3.org/2000/svg" xmlns:xlink="http://www.w3.org/1999/xlink" version="1.1">
    <circle cx="256" cy="256" r="256" fill="white"></circle>
    <g transform="translate(195 260) scale(1.4)">
        <path d="M157.8 -112.4C199.4 -73.7 224.5 -8.4 202.4 29.2C180.3 66.8 111 76.7 57.6 91.6C4.2 106.6 -33.3 126.7 -61 117.1C-88.7 107.4 -106.8 67.9 -112.4 29.5C-118.1 -8.9 -111.4 -46.2 -90.6 -80.1C-69.8 -114 -34.9 -144.5 11.6 -153.8C58.1 -163 116.2 -151 157.8 -112.4" fill="#00000"></path>
    </g>
    <g transform="translate(120 110) scale(0.6)">
        <path d="M416 208c0 45.9-14.9 88.3-40 122.7L502.6 457.4c12.5 12.5 12.5 32.8 0 45.3s-32.8 12.5-45.3 0L330.7 376c-34.4 25.2-76.8 40-122.7 40C93.1 416 0 322.9 0 208S93.1 0 208 0S416 93.1 416 208zM208 352a144 144 0 1 0 0-288 144 144 0 1 0 0 288z" fill="#FFF"></path>
    </g>
</svg>
